<mxfile host="65bd71144e">
    <diagram id="_BfWxnmn0xFR7Y4hnnBO" name="State Machine Diagram">
        <mxGraphModel dx="729" dy="866" grid="1" gridSize="10" guides="1" tooltips="1" connect="1" arrows="1" fold="1" page="1" pageScale="1" pageWidth="850" pageHeight="1100" background="#FFFFFF" math="0" shadow="0">
            <root>
                <mxCell id="0"/>
                <mxCell id="1" parent="0"/>
                <mxCell id="PgdKDfmIsr92nvsyvFpR-3" value="Thanh toán thất bại" style="rounded=1;whiteSpace=wrap;html=1;" parent="1" vertex="1">
                    <mxGeometry x="350" y="580" width="120" height="60" as="geometry"/>
                </mxCell>
                <mxCell id="3" value="Thanh toán thành công" style="rounded=1;whiteSpace=wrap;html=1;" parent="1" vertex="1">
                    <mxGeometry x="90" y="580" width="120" height="60" as="geometry"/>
                </mxCell>
                <mxCell id="5" value="Đang xử lí" style="rounded=1;whiteSpace=wrap;html=1;" parent="1" vertex="1">
                    <mxGeometry x="390" y="700" width="120" height="60" as="geometry"/>
                </mxCell>
                <mxCell id="6" value="Giỏ hàng rỗng" style="rounded=1;whiteSpace=wrap;html=1;" parent="1" vertex="1">
                    <mxGeometry x="195" y="130" width="110" height="40" as="geometry"/>
                </mxCell>
                <mxCell id="7" value="Đã thêm sản phẩm" style="rounded=1;whiteSpace=wrap;html=1;" parent="1" vertex="1">
                    <mxGeometry x="440" y="135" width="120" height="30" as="geometry"/>
                </mxCell>
                <mxCell id="8" value="Đã áp dụng mã giảm giá" style="rounded=1;whiteSpace=wrap;html=1;" parent="1" vertex="1">
                    <mxGeometry x="590" y="610" width="120" height="60" as="geometry"/>
                </mxCell>
                <mxCell id="9" value="Chờ thanh toán" style="rounded=1;whiteSpace=wrap;html=1;" parent="1" vertex="1">
                    <mxGeometry x="440" y="230" width="120" height="60" as="geometry"/>
                </mxCell>
                <mxCell id="10" value="Đang xử lí tại ngân hàng" style="rounded=1;whiteSpace=wrap;html=1;" parent="1" vertex="1">
                    <mxGeometry x="185" y="470" width="120" height="60" as="geometry"/>
                </mxCell>
                <mxCell id="11" value="Chuyển hướng ngân hàng" style="rounded=1;whiteSpace=wrap;html=1;" parent="1" vertex="1">
                    <mxGeometry x="185" y="350" width="120" height="60" as="geometry"/>
                </mxCell>
                <mxCell id="12" value="" style="ellipse;whiteSpace=wrap;html=1;aspect=fixed;" parent="1" vertex="1">
                    <mxGeometry x="40" y="135" width="30" height="30" as="geometry"/>
                </mxCell>
                <mxCell id="13" value="" style="endArrow=classic;html=1;exitX=1;exitY=0.5;exitDx=0;exitDy=0;entryX=0;entryY=0.5;entryDx=0;entryDy=0;" edge="1" parent="1" source="12" target="6">
                    <mxGeometry width="50" height="50" relative="1" as="geometry">
                        <mxPoint x="190" y="310" as="sourcePoint"/>
                        <mxPoint x="240" y="260" as="targetPoint"/>
                    </mxGeometry>
                </mxCell>
                <mxCell id="14" value="Thêm sản phẩm" style="edgeLabel;html=1;align=center;verticalAlign=middle;resizable=0;points=[];" vertex="1" connectable="0" parent="13">
                    <mxGeometry x="0.008" relative="1" as="geometry">
                        <mxPoint x="-3" y="-15" as="offset"/>
                    </mxGeometry>
                </mxCell>
                <mxCell id="15" value="" style="endArrow=classic;html=1;exitX=1;exitY=0.5;exitDx=0;exitDy=0;entryX=0;entryY=0.5;entryDx=0;entryDy=0;" edge="1" parent="1" source="6" target="7">
                    <mxGeometry width="50" height="50" relative="1" as="geometry">
                        <mxPoint x="305" y="149.55" as="sourcePoint"/>
                        <mxPoint x="430" y="149.55" as="targetPoint"/>
                        <Array as="points">
                            <mxPoint x="375" y="149.55"/>
                        </Array>
                    </mxGeometry>
                </mxCell>
                <mxCell id="16" value="Áp dụng mã giảm giá" style="edgeLabel;html=1;align=center;verticalAlign=middle;resizable=0;points=[];" vertex="1" connectable="0" parent="15">
                    <mxGeometry x="0.008" relative="1" as="geometry">
                        <mxPoint x="-3" y="-15" as="offset"/>
                    </mxGeometry>
                </mxCell>
                <mxCell id="18" value="" style="endArrow=classic;html=1;exitX=0.5;exitY=1;exitDx=0;exitDy=0;entryX=0.5;entryY=0;entryDx=0;entryDy=0;" edge="1" parent="1" source="7" target="9">
                    <mxGeometry width="50" height="50" relative="1" as="geometry">
                        <mxPoint x="560" y="210" as="sourcePoint"/>
                        <mxPoint x="500" y="220" as="targetPoint"/>
                    </mxGeometry>
                </mxCell>
                <mxCell id="19" value="Nhấn &quot;Thanh toán&quot;" style="edgeLabel;html=1;align=center;verticalAlign=middle;resizable=0;points=[];" vertex="1" connectable="0" parent="18">
                    <mxGeometry x="0.008" relative="1" as="geometry">
                        <mxPoint x="-3" y="-15" as="offset"/>
                    </mxGeometry>
                </mxCell>
                <mxCell id="22" value="Chưa bắt đầu" style="rounded=1;whiteSpace=wrap;html=1;" vertex="1" parent="1">
                    <mxGeometry x="440" y="350" width="120" height="60" as="geometry"/>
                </mxCell>
                <mxCell id="25" value="" style="endArrow=classic;html=1;exitX=0.5;exitY=1;exitDx=0;exitDy=0;entryX=0.418;entryY=-0.019;entryDx=0;entryDy=0;entryPerimeter=0;" edge="1" parent="1" source="10" target="PgdKDfmIsr92nvsyvFpR-3">
                    <mxGeometry width="50" height="50" relative="1" as="geometry">
                        <mxPoint x="280" y="500" as="sourcePoint"/>
                        <mxPoint x="330" y="450" as="targetPoint"/>
                    </mxGeometry>
                </mxCell>
                <mxCell id="26" value="" style="endArrow=classic;html=1;exitX=0.5;exitY=1;exitDx=0;exitDy=0;entryX=0.5;entryY=0;entryDx=0;entryDy=0;" edge="1" parent="1" source="10" target="3">
                    <mxGeometry width="50" height="50" relative="1" as="geometry">
                        <mxPoint x="70" y="420" as="sourcePoint"/>
                        <mxPoint x="120" y="370" as="targetPoint"/>
                    </mxGeometry>
                </mxCell>
                <mxCell id="29" value="" style="endArrow=classic;html=1;exitX=1;exitY=0.5;exitDx=0;exitDy=0;entryX=0.425;entryY=0.043;entryDx=0;entryDy=0;entryPerimeter=0;" edge="1" parent="1" source="PgdKDfmIsr92nvsyvFpR-3" target="7">
                    <mxGeometry width="50" height="50" relative="1" as="geometry">
                        <mxPoint x="490" y="440" as="sourcePoint"/>
                        <mxPoint x="430" y="70" as="targetPoint"/>
                        <Array as="points">
                            <mxPoint x="620" y="450"/>
                            <mxPoint x="620" y="90"/>
                            <mxPoint x="490" y="90"/>
                        </Array>
                    </mxGeometry>
                </mxCell>
                <mxCell id="30" value="" style="endArrow=classic;html=1;exitX=0.5;exitY=1;exitDx=0;exitDy=0;entryX=0.5;entryY=0;entryDx=0;entryDy=0;" edge="1" parent="1" source="9" target="22">
                    <mxGeometry width="50" height="50" relative="1" as="geometry">
                        <mxPoint x="370" y="350" as="sourcePoint"/>
                        <mxPoint x="420" y="300" as="targetPoint"/>
                    </mxGeometry>
                </mxCell>
                <mxCell id="31" value="" style="endArrow=classic;html=1;exitX=0;exitY=0.5;exitDx=0;exitDy=0;entryX=1;entryY=0.5;entryDx=0;entryDy=0;" edge="1" parent="1" source="22" target="11">
                    <mxGeometry width="50" height="50" relative="1" as="geometry">
                        <mxPoint x="350" y="300" as="sourcePoint"/>
                        <mxPoint x="400" y="250" as="targetPoint"/>
                    </mxGeometry>
                </mxCell>
                <mxCell id="32" value="Chọn phương thức" style="text;html=1;align=center;verticalAlign=middle;resizable=0;points=[];autosize=1;strokeColor=none;fillColor=none;" vertex="1" parent="1">
                    <mxGeometry x="310" y="350" width="130" height="30" as="geometry"/>
                </mxCell>
                <mxCell id="34" value="" style="endArrow=classic;html=1;exitX=0.5;exitY=1;exitDx=0;exitDy=0;entryX=0.5;entryY=0;entryDx=0;entryDy=0;" edge="1" parent="1" source="11" target="10">
                    <mxGeometry width="50" height="50" relative="1" as="geometry">
                        <mxPoint x="130" y="490" as="sourcePoint"/>
                        <mxPoint x="180" y="440" as="targetPoint"/>
                    </mxGeometry>
                </mxCell>
            </root>
        </mxGraphModel>
    </diagram>
</mxfile>